<svg width="900" height="200" version="1.1" viewBox="0 0 900 200" xmlns="http://www.w3.org/2000/svg"><defs><filter id="d" x="-.048" y="-.048" width="1.096" height="1.096" color-interpolation-filters="sRGB"><feGaussianBlur stdDeviation="2"/></filter><linearGradient id="e" x1="131.91" x2="768.09" y1="-218.09" y2="418.09" gradientUnits="userSpaceOnUse"><stop stop-color="#50c850" offset="0"/><stop stop-color="#00bfe0" offset="1"/></linearGradient><mask id="a" maskUnits="userSpaceOnUse"><path d="m0 0v200h900v-200zm5 5h890v190h-890zm736.07 34c-0.98618 9.9e-5 -1.787 0.79898-1.7871 1.7852v32.156c-1.495-1.1279-3.3517-1.7988-5.3574-1.7988-4.9099 0-8.9277 4.0198-8.9277 8.9297s4.0178 8.9277 8.9277 8.9277 8.9297-4.0178 8.9297-8.9277v-30.357h12.5c0.98618-9.8e-5 1.785-0.80093 1.7852-1.7871v-7.1426c-1e-4 -0.98618-0.79898-1.785-1.7852-1.7852zm-631.07 11c-27.571 0-50 22.429-50 50s22.429 50 50 50 50-22.429 50-50-22.429-50-50-50zm0 7.1426c23.712 0 42.857 19.146 42.857 42.857 0 10.567-3.8092 20.221-10.123 27.684l-60.418-60.418c7.4629-6.3138 17.117-10.123 27.684-10.123zm686.07 1.8574c-0.98618 9.9e-5 -1.787 0.79898-1.7871 1.7852v32.156c-1.495-1.1279-3.3517-1.7988-5.3574-1.7988-4.9099 0-8.9277 4.0198-8.9277 8.9297s4.0178 8.9277 8.9277 8.9277 8.9297-4.0178 8.9297-8.9277v-30.357h12.5c0.98618-9.9e-5 1.785-0.80093 1.7852-1.7871v-7.1426c-9e-5 -0.98618-0.79898-1.785-1.7852-1.7852zm-718.81 13.318 60.418 60.416c-7.463 6.3138-17.117 10.123-27.684 10.123-23.712 0-42.857-19.146-42.857-42.857 0-10.567 3.8092-20.219 10.123-27.682zm608.81 26.682c-0.98618 9.9e-5 -1.787 0.79896-1.7871 1.7852v32.156c-1.495-1.1279-3.3517-1.7988-5.3574-1.7988-4.9099 0-8.9277 4.0198-8.9277 8.9297s4.0178 8.9277 8.9277 8.9277 8.9297-4.0178 8.9297-8.9277v-30.357h12.5c0.98618-1e-4 1.785-0.80093 1.7852-1.7871v-7.1426c-1e-4 -0.9862-0.79898-1.785-1.7852-1.7852z" fill="#fff"/></mask></defs><path d="m0 0h900v200h-900z" fill="#001a1a"/><path d="m2.5005 59.5v1h83.242a47.236 47.5 0 0 1 1.5946-1h-84.837zm134.05 0a47.236 47.5 0 0 1 1.5674 1h759.38v-1h-760.95zm-134.05 20v1h66.336a47.236 47.5 0 0 1 0.50305-1h-66.84zm151.99 0a47.236 47.5 0 0 1 0.45255 1h742.55v-1h-743.01zm-122.16 5.5a4.9722 5 0 0 0-4.9722 5 4.9722 5 0 0 0 4.9722 5 4.9722 5 0 0 0 4.9722-5 4.9722 5 0 0 0-4.9722-5zm-29.833 14.5v1h62.188a47.236 47.5 0 0 1-0.03496-0.5 47.236 47.5 0 0 1 0.03496-0.5zm156.61 0a47.236 47.5 0 0 1 0.0117 0.5 47.236 47.5 0 0 1-0.035 0.5h22.41v-1h-22.387zm444.03 0v1h294.36v-1zm-570.81 5.5a4.9722 5 0 0 0-4.9722 5 4.9722 5 0 0 0 4.9722 5 4.9722 5 0 0 0 4.9722-5 4.9722 5 0 0 0-4.9722-5zm-29.833 14.5v1h66.84a47.236 47.5 0 0 1-0.50305-1h-66.336zm152.44 0a47.236 47.5 0 0 1-0.50305 1h743.06v-1h-742.56zm-152.44 20v1h84.837a47.236 47.5 0 0 1-1.5946-1h-83.242zm135.53 0a47.236 47.5 0 0 1-1.5946 1h761.06v-1h-759.47z" fill="#fff" fill-opacity=".2"/><path d="m110 75c13.786 0 25 11.214 25 25s-11.214 25-25 25-25-11.214-25-25 11.214-25 25-25zm0 3.5714c-11.856 0-21.429 9.5728-21.429 21.429 0 5.2833 1.9047 10.11 5.0616 13.842l30.209-30.209c-3.7315-3.1569-8.5581-5.0616-13.842-5.0616zm16.367 7.5871-30.209 30.209c3.7315 3.1569 8.5582 5.0616 13.842 5.0616 11.856 0 21.429-9.5728 21.429-21.429 0-5.2833-1.9047-10.11-5.0616-13.842z" fill="#00bfe0"/><path d="m110 50c-27.571 0-50 22.429-50 50s22.429 50 50 50 50-22.429 50-50-22.429-50-50-50zm0 7.1429c23.712 0 42.857 19.146 42.857 42.857 0 10.567-3.8094 20.22-10.123 27.683l-60.417-60.417c7.4629-6.3138 17.116-10.123 27.683-10.123zm-32.734 15.174 60.417 60.417c-7.463 6.3138-17.116 10.123-27.683 10.123-23.712 0-42.857-19.146-42.857-42.857 0-10.567 3.8094-20.22 10.123-27.683z" filter="url(#d)" style="mix-blend-mode:normal"/><path d="m206.91 79.776-6.6133 31.104h-6.3147l-8.192-22.315-4.736 22.315h-6.0587l6.6133-31.104h6.4l8.192 21.973 4.6507-21.973zm-0.512 23.552q0-6.6133 3.8827-11.221 3.9253-4.6507 10.24-4.6507 4.3947 0 6.912 2.304 2.5173 2.2613 2.5173 6.2293 0 6.7413-3.968 11.307-3.968 4.5653-10.325 4.5653-4.224 0-6.7413-2.304-2.5173-2.3467-2.5173-6.2293zm10.325 3.7547q2.0053 0 3.4987-1.152 1.4933-1.1947 2.2187-2.9013 0.72534-1.7493 1.0667-3.2427 0.34133-1.4933 0.34133-2.56 0-2.2613-1.152-3.6267-1.152-1.3653-3.1147-1.3653-2.9013 0-4.992 2.944-2.0907 2.9013-2.0907 6.9547 0 2.2613 1.152 3.6267 1.152 1.3227 3.072 1.3227zm19.413-19.243h5.9733l-0.768 3.4987q1.7067-2.048 3.5413-2.944 1.8347-0.93867 4.224-0.93867 2.8587 0 4.5653 1.536t1.7067 4.096q0 1.152-0.256 2.3467l-3.2853 15.445h-5.9733l2.8587-13.355q0.256-1.408 0.256-2.0907 0-3.2-3.1573-3.2-2.1333 0-3.712 1.536-1.536 1.4933-2.1333 4.1387l-2.7733 12.971h-5.9733zm34.304 8.448-1.2373 5.76h-11.605l1.2373-5.76zm22.357-16.512q2.432 0 4.1813 0.64 1.792 0.64 2.688 1.7067 0.896 1.024 1.28 2.1333 0.384 1.0667 0.384 2.2613 0 4.5227-4.992 7.808 1.6213 1.28 2.304 2.6027 0.72533 1.3227 0.72533 3.072 0 0.68267-0.21333 1.6213-0.17067 0.896-0.64 2.2187-0.46934 1.28-1.4507 2.4747-0.98134 1.1947-2.3467 2.2613-1.3653 1.024-3.5413 1.664t-4.864 0.64h-13.995l6.6133-31.104zm-3.1147 12.373q2.9867 0 4.1387-1.3227 1.152-1.3653 1.152-3.072 0-1.3653-0.93867-2.0053-0.896-0.64-2.8587-0.64h-6.9973l-1.4933 7.04zm-2.2187 13.397q3.0293 0 4.3093-1.4933 1.28-1.536 1.28-3.6267 0-2.944-3.8827-2.944h-7.5947l-1.7067 8.064zm27.605-25.771-6.6133 31.104h-5.9733l6.6133-31.104zm-0.0854 23.552q0-6.6133 3.8827-11.221 3.9253-4.6507 10.24-4.6507 4.3947 0 6.912 2.304 2.5173 2.2613 2.5173 6.2293 0 6.7413-3.968 11.307-3.968 4.5653-10.325 4.5653-4.224 0-6.7413-2.304-2.5173-2.3467-2.5173-6.2293zm10.325 3.7547q2.0053 0 3.4987-1.152 1.4933-1.1947 2.2187-2.9013 0.72533-1.7493 1.0667-3.2427 0.34134-1.4933 0.34134-2.56 0-2.2613-1.152-3.6267-1.152-1.3653-3.1147-1.3653-2.9013 0-4.992 2.944-2.0907 2.9013-2.0907 6.9547 0 2.2613 1.152 3.6267 1.152 1.3227 3.072 1.3227zm29.227-19.627q3.8827 0 6.1867 2.048t2.304 5.12q0 0.46933-0.17066 1.8347h-5.7173q-0.0427-2.1333-0.68267-3.1573-0.64-1.0667-2.816-1.0667-1.8773 0-3.2853 1.152t-2.0907 2.944q-0.68267 1.7493-1.024 3.3707-0.29867 1.6213-0.29867 2.9867 0 4.3947 3.7973 4.3947 1.7493 0 2.9013-0.93866 1.152-0.98134 2.1333-3.2427h5.7173q-1.3227 4.2667-4.352 6.6133-2.9867 2.3467-7.1253 2.3467-2.6027 0-4.5227-0.81066-1.8773-0.81067-2.8587-2.1333-0.93867-1.3227-1.3653-2.6453-0.42667-1.3227-0.42667-2.7307t0.29867-3.1573q0.29866-1.792 1.2373-4.1387 0.93867-2.3467 2.3467-4.224 1.4507-1.92 4.0107-3.2427t5.8027-1.3227zm21.845-7.68-3.6267 17.024 9.5147-8.96h6.784l-9.8987 8.7893 5.504 14.251h-6.9973l-3.3707-10.197-2.9013 2.6453-1.6213 7.552h-5.9733l6.6133-31.104zm22.357 8.064-4.9067 23.04h-5.9733l4.9067-23.04zm1.7067-8.064-1.152 5.3333h-5.9733l1.152-5.3333zm4.0107 8.064h5.9733l-0.768 3.4987q1.7067-2.048 3.5413-2.944 1.8347-0.93867 4.224-0.93867 2.8587 0 4.5653 1.536t1.7067 4.096q0 1.152-0.256 2.3467l-3.2853 15.445h-5.9733l2.8587-13.355q0.256-1.408 0.256-2.0907 0-3.2-3.1573-3.2-2.1333 0-3.712 1.536-1.536 1.4933-2.1333 4.1387l-2.7733 12.971h-5.9733zm28.501 32.341q-4.8213 0-6.8693-1.5787-2.048-1.536-2.048-3.6267 0-0.55466 0.128-1.3227h6.144q-0.0427 0.21333-0.0427 0.512 0 0.93866 1.024 1.536 1.0667 0.64 2.6453 0.64 2.3467 0 4.0533-1.3227 1.7067-1.28 2.176-3.3707l0.68267-3.1147q-2.048 1.8773-3.584 2.6027t-3.4987 0.72533q-3.2427 0-5.376-2.304-2.0907-2.304-2.0907-5.8027 0-2.8587 0.896-5.7173 0.896-2.9013 2.4747-5.248 1.6213-2.3893 4.0533-3.84 2.4747-1.4933 5.3333-1.4933 3.712 0 5.4187 3.9253l0.768-3.5413h5.6747l-5.0773 23.808q-0.85333 4.0533-4.224 6.272-3.3707 2.2613-8.6613 2.2613zm6.144-27.947q-2.6027 0-4.6507 3.072t-2.048 6.9973q0 2.2187 0.93867 3.4987 0.98133 1.28 2.6453 1.28 2.8587 0 4.9493-2.8587 2.0907-2.9013 2.0907-6.784 0-2.3893-1.0667-3.7973t-2.8587-1.408zm42.965 18.645h-6.4l-0.29867-26.411-5.632 26.411h-6.0587l6.6133-31.104h9.2587l0.85333 23.893 10.837-23.893h9.344l-6.6133 31.104h-6.0587l5.632-26.411zm30.507-23.424q4.0533 0 6.528 2.3467 2.5173 2.3467 2.5173 6.1013 0 2.432-0.768 5.3333h-15.488q-0.128 1.1947-0.128 1.92 0 1.7493 1.1093 2.8587 1.1093 1.0667 2.944 1.0667 1.536 0 2.816-0.72533 1.3227-0.72533 1.9627-1.9627h5.888q-1.7493 3.5413-4.864 5.504-3.072 1.9627-6.9547 1.9627-4.0107 0-6.528-2.432-2.4747-2.4747-2.4747-6.4427 0-1.024 0.21334-2.3467 0.21333-1.3227 0.72533-3.1573 0.512-1.8773 1.4933-3.5413 1.024-1.7067 2.432-3.2t3.6267-2.3893 4.9493-0.896zm-0.72533 4.7787q-4.3093 0-5.7173 5.0347h9.3867q0-1.1947-0.128-1.92-0.0853-0.768-0.42666-1.536-0.34134-0.81067-1.1093-1.1947t-2.0053-0.384zm23.723-12.459-6.6133 31.104h-5.9733l6.6133-31.104zm-0.0853 23.552q0-6.6133 3.8827-11.221 3.9253-4.6507 10.24-4.6507 4.3947 0 6.912 2.304 2.5173 2.2613 2.5173 6.2293 0 6.7413-3.968 11.307-3.968 4.5653-10.325 4.5653-4.224 0-6.7413-2.304-2.5173-2.3467-2.5173-6.2293zm10.325 3.7547q2.0053 0 3.4987-1.152 1.4933-1.1947 2.2187-2.9013 0.72533-1.7493 1.0667-3.2427 0.34134-1.4933 0.34134-2.56 0-2.2613-1.152-3.6267-1.152-1.3653-3.1147-1.3653-2.9013 0-4.992 2.944-2.0907 2.9013-2.0907 6.9547 0 2.2613 1.152 3.6267 1.152 1.3227 3.072 1.3227zm29.525 3.7973 0.512-2.3467q-2.9013 3.328-7.0827 3.328-3.328 0-5.3333-2.432t-2.0053-6.4427q0-3.6693 1.4933-7.2107 1.536-3.5413 4.48-5.9307t6.528-2.3893q4.224 0 5.6747 3.3707l2.3467-11.051h5.9733l-6.6133 31.104zm-1.0667-18.645q-2.6453 0-4.6933 2.9867t-2.048 6.8693q0 2.304 0.98134 3.6693 1.024 1.3227 2.7307 1.3227 2.7307 0 4.736-2.9867 2.048-2.9867 2.048-6.9973 0-2.2187-1.024-3.5413-0.98134-1.3227-2.7307-1.3227zm31.573-4.3947h6.144l-15.275 27.221q-1.0667 2.0053-1.8773 2.816-2.432 2.3467-7.2533 2.3467-1.152 0-1.8773-0.17067l0.98133-4.6507q0.46934 0.0853 1.1947 0.0853 2.2187 0 3.4987-1.0667 1.3227-1.0667 1.3227-2.9013-0.55467-4.5653-1.7493-12.757-1.152-8.2347-1.536-10.923h6.5707l1.536 16.768z" fill="#fff" aria-label="Non-Blocking Melody"/><path d="m0 0h900v200h-900z" fill="url(#e)" mask="url(#a)"/></svg>